<mxfile host="app.diagrams.net" agent="Mozilla/5.0 (Windows NT 10.0; Win64; x64; rv:128.0) Gecko/20100101 Firefox/128.0" version="26.2.14">
  <diagram name="第 1 页" id="_JSW-pFJFw3_mCZtBmDB">
    <mxGraphModel dx="784" dy="1118" grid="1" gridSize="10" guides="1" tooltips="1" connect="1" arrows="1" fold="1" page="1" pageScale="1" pageWidth="827" pageHeight="1169" math="0" shadow="0">
      <root>
        <mxCell id="0" />
        <mxCell id="1" parent="0" />
        <mxCell id="iCYAZF37LzL7ljf92HmD-1" value="&lt;font face=&quot;Arial&quot;&gt;User Roles&lt;/font&gt;" style="rounded=0;whiteSpace=wrap;html=1;" vertex="1" parent="1">
          <mxGeometry x="760" y="600" width="120" height="60" as="geometry" />
        </mxCell>
        <mxCell id="iCYAZF37LzL7ljf92HmD-2" value="&lt;font face=&quot;Arial&quot;&gt;Admin&lt;/font&gt;" style="ellipse;whiteSpace=wrap;html=1;" vertex="1" parent="1">
          <mxGeometry x="620" y="510" width="120" height="80" as="geometry" />
        </mxCell>
        <mxCell id="iCYAZF37LzL7ljf92HmD-3" value="&lt;font face=&quot;Arial&quot;&gt;Leader&lt;/font&gt;" style="ellipse;whiteSpace=wrap;html=1;" vertex="1" parent="1">
          <mxGeometry x="690" y="430" width="120" height="80" as="geometry" />
        </mxCell>
        <mxCell id="iCYAZF37LzL7ljf92HmD-4" value="&lt;font face=&quot;Arial&quot;&gt;Member&lt;/font&gt;" style="ellipse;whiteSpace=wrap;html=1;" vertex="1" parent="1">
          <mxGeometry x="830" y="430" width="120" height="80" as="geometry" />
        </mxCell>
        <mxCell id="iCYAZF37LzL7ljf92HmD-5" value="&lt;font face=&quot;Arial&quot;&gt;Normal User&lt;br&gt;&lt;/font&gt;" style="ellipse;whiteSpace=wrap;html=1;" vertex="1" parent="1">
          <mxGeometry x="900" y="510" width="120" height="80" as="geometry" />
        </mxCell>
        <mxCell id="iCYAZF37LzL7ljf92HmD-6" value="" style="endArrow=none;html=1;rounded=0;exitX=0.5;exitY=0;exitDx=0;exitDy=0;entryX=1;entryY=1;entryDx=0;entryDy=0;" edge="1" parent="1" source="iCYAZF37LzL7ljf92HmD-1" target="iCYAZF37LzL7ljf92HmD-2">
          <mxGeometry width="50" height="50" relative="1" as="geometry">
            <mxPoint x="780" y="660" as="sourcePoint" />
            <mxPoint x="830" y="610" as="targetPoint" />
          </mxGeometry>
        </mxCell>
        <mxCell id="iCYAZF37LzL7ljf92HmD-7" value="" style="endArrow=none;html=1;rounded=0;exitX=0.5;exitY=0;exitDx=0;exitDy=0;entryX=0.5;entryY=1;entryDx=0;entryDy=0;" edge="1" parent="1" source="iCYAZF37LzL7ljf92HmD-1" target="iCYAZF37LzL7ljf92HmD-3">
          <mxGeometry width="50" height="50" relative="1" as="geometry">
            <mxPoint x="830" y="610" as="sourcePoint" />
            <mxPoint x="750" y="560" as="targetPoint" />
          </mxGeometry>
        </mxCell>
        <mxCell id="iCYAZF37LzL7ljf92HmD-8" value="" style="endArrow=none;html=1;rounded=0;exitX=0.5;exitY=0;exitDx=0;exitDy=0;entryX=0.5;entryY=1;entryDx=0;entryDy=0;" edge="1" parent="1" source="iCYAZF37LzL7ljf92HmD-1" target="iCYAZF37LzL7ljf92HmD-4">
          <mxGeometry width="50" height="50" relative="1" as="geometry">
            <mxPoint x="790" y="610" as="sourcePoint" />
            <mxPoint x="840" y="560" as="targetPoint" />
          </mxGeometry>
        </mxCell>
        <mxCell id="iCYAZF37LzL7ljf92HmD-9" value="" style="endArrow=none;html=1;rounded=0;exitX=0.5;exitY=0;exitDx=0;exitDy=0;" edge="1" parent="1" source="iCYAZF37LzL7ljf92HmD-1" target="iCYAZF37LzL7ljf92HmD-5">
          <mxGeometry width="50" height="50" relative="1" as="geometry">
            <mxPoint x="790" y="610" as="sourcePoint" />
            <mxPoint x="840" y="560" as="targetPoint" />
          </mxGeometry>
        </mxCell>
      </root>
    </mxGraphModel>
  </diagram>
</mxfile>
